<svg width="24" height="24" viewBox="0 0 24 24" fill="none" xmlns="http://www.w3.org/2000/svg">
<g clip-path="url(#clip0_1755_6229)">
<g filter="url(#filter0_d_1755_6229)">
<path d="M11.9992 13C12.5515 13 12.9992 12.5523 12.9992 12C12.9992 11.4477 12.5515 11 11.9992 11C11.4469 11 10.9992 11.4477 10.9992 12C10.9992 12.5523 11.4469 13 11.9992 13Z" fill="white"/>
<path d="M11.9992 13C12.5515 13 12.9992 12.5523 12.9992 12C12.9992 11.4477 12.5515 11 11.9992 11C11.4469 11 10.9992 11.4477 10.9992 12C10.9992 12.5523 11.4469 13 11.9992 13Z" stroke="white" stroke-width="2" stroke-linecap="round" stroke-linejoin="round"/>
</g>
<g filter="url(#filter1_d_1755_6229)">
<path d="M11.9992 5C12.5515 5 12.9992 4.55228 12.9992 4C12.9992 3.44772 12.5515 3 11.9992 3C11.4469 3 10.9992 3.44772 10.9992 4C10.9992 4.55228 11.4469 5 11.9992 5Z" fill="white"/>
<path d="M11.9992 5C12.5515 5 12.9992 4.55228 12.9992 4C12.9992 3.44772 12.5515 3 11.9992 3C11.4469 3 10.9992 3.44772 10.9992 4C10.9992 4.55228 11.4469 5 11.9992 5Z" stroke="white" stroke-width="2" stroke-linecap="round" stroke-linejoin="round"/>
</g>
<g filter="url(#filter2_d_1755_6229)">
<path d="M11.9992 21C12.5515 21 12.9992 20.5523 12.9992 20C12.9992 19.4477 12.5515 19 11.9992 19C11.4469 19 10.9992 19.4477 10.9992 20C10.9992 20.5523 11.4469 21 11.9992 21Z" fill="white"/>
<path d="M11.9992 21C12.5515 21 12.9992 20.5523 12.9992 20C12.9992 19.4477 12.5515 19 11.9992 19C11.4469 19 10.9992 19.4477 10.9992 20C10.9992 20.5523 11.4469 21 11.9992 21Z" stroke="white" stroke-width="2" stroke-linecap="round" stroke-linejoin="round"/>
</g>
</g>
<defs>
<filter id="filter0_d_1755_6229" x="5.99921" y="6" width="12" height="12" filterUnits="userSpaceOnUse" color-interpolation-filters="sRGB">
<feFlood flood-opacity="0" result="BackgroundImageFix"/>
<feColorMatrix in="SourceAlpha" type="matrix" values="0 0 0 0 0 0 0 0 0 0 0 0 0 0 0 0 0 0 127 0" result="hardAlpha"/>
<feOffset/>
<feGaussianBlur stdDeviation="2"/>
<feComposite in2="hardAlpha" operator="out"/>
<feColorMatrix type="matrix" values="0 0 0 0 0 0 0 0 0 0 0 0 0 0 0 0 0 0 0.25 0"/>
<feBlend mode="normal" in2="BackgroundImageFix" result="effect1_dropShadow_1755_6229"/>
<feBlend mode="normal" in="SourceGraphic" in2="effect1_dropShadow_1755_6229" result="shape"/>
</filter>
<filter id="filter1_d_1755_6229" x="5.99921" y="-2" width="12" height="12" filterUnits="userSpaceOnUse" color-interpolation-filters="sRGB">
<feFlood flood-opacity="0" result="BackgroundImageFix"/>
<feColorMatrix in="SourceAlpha" type="matrix" values="0 0 0 0 0 0 0 0 0 0 0 0 0 0 0 0 0 0 127 0" result="hardAlpha"/>
<feOffset/>
<feGaussianBlur stdDeviation="2"/>
<feComposite in2="hardAlpha" operator="out"/>
<feColorMatrix type="matrix" values="0 0 0 0 0 0 0 0 0 0 0 0 0 0 0 0 0 0 0.25 0"/>
<feBlend mode="normal" in2="BackgroundImageFix" result="effect1_dropShadow_1755_6229"/>
<feBlend mode="normal" in="SourceGraphic" in2="effect1_dropShadow_1755_6229" result="shape"/>
</filter>
<filter id="filter2_d_1755_6229" x="5.99921" y="14" width="12" height="12" filterUnits="userSpaceOnUse" color-interpolation-filters="sRGB">
<feFlood flood-opacity="0" result="BackgroundImageFix"/>
<feColorMatrix in="SourceAlpha" type="matrix" values="0 0 0 0 0 0 0 0 0 0 0 0 0 0 0 0 0 0 127 0" result="hardAlpha"/>
<feOffset/>
<feGaussianBlur stdDeviation="2"/>
<feComposite in2="hardAlpha" operator="out"/>
<feColorMatrix type="matrix" values="0 0 0 0 0 0 0 0 0 0 0 0 0 0 0 0 0 0 0.25 0"/>
<feBlend mode="normal" in2="BackgroundImageFix" result="effect1_dropShadow_1755_6229"/>
<feBlend mode="normal" in="SourceGraphic" in2="effect1_dropShadow_1755_6229" result="shape"/>
</filter>
<clipPath id="clip0_1755_6229">
<rect width="24" height="24" fill="white"/>
</clipPath>
</defs>
</svg>
