<svg width="24" height="24" viewBox="0 0 24 24" fill="none" xmlns="http://www.w3.org/2000/svg">
<path d="M7.00037 11.001L11.0004 2.00098C11.796 2.00098 12.5591 2.31705 13.1217 2.87966C13.6843 3.44227 14.0004 4.20533 14.0004 5.00098V9.00098H19.6604C19.9503 8.99769 20.2374 9.05748 20.5019 9.17619C20.7664 9.29491 21.002 9.46971 21.1922 9.68849C21.3825 9.90727 21.5229 10.1648 21.6037 10.4432C21.6845 10.7217 21.7039 11.0143 21.6604 11.301L20.2804 20.301C20.208 20.7779 19.9658 21.2126 19.5983 21.525C19.2307 21.8374 18.7627 22.0064 18.2804 22.001H7.00037M7.00037 11.001V22.001M7.00037 11.001H4.00037C3.46993 11.001 2.96123 11.2117 2.58615 11.5868C2.21108 11.9618 2.00037 12.4705 2.00037 13.001V20.001C2.00037 20.5314 2.21108 21.0401 2.58615 21.4152C2.96123 21.7903 3.46993 22.001 4.00037 22.001H7.00037" stroke="#282827" stroke-width="1.5" stroke-linecap="round" stroke-linejoin="round"/>
</svg>
