<svg width="24" height="24" viewBox="0 0 24 24" fill="none" xmlns="http://www.w3.org/2000/svg">
<path d="M18.1005 19C21.8154 15.2851 21.9606 9.35224 18.536 5.46397M16 16C18.2091 13.7908 18.2091 10.2092 16 8M3 21L7.16051 16.8395M21 3L18.536 5.46397M18.536 5.46397L13 11M13 11V21C10.1539 21 7.90247 17.9713 7.16051 16.8395M13 11L7.16051 16.8395M13 7V3C9.5 3 6.89925 7.5054 6.89925 7.5054C6.89925 7.5054 3 6.91883 3 8.5054V15.4195C3 15.8095 3.23557 16.0682 3.59092 16.2366" stroke="white" stroke-width="1.2" stroke-linecap="round" stroke-linejoin="round"/>
</svg>
