<svg width="20" height="20" viewBox="0 0 20 20" fill="none" xmlns="http://www.w3.org/2000/svg">
<path d="M9.99935 10.8337C10.4596 10.8337 10.8327 10.4606 10.8327 10.0003C10.8327 9.54009 10.4596 9.16699 9.99935 9.16699C9.53911 9.16699 9.16602 9.54009 9.16602 10.0003C9.16602 10.4606 9.53911 10.8337 9.99935 10.8337Z" fill="#FDFBF8" stroke="#FDFBF8" stroke-width="1.2" stroke-linecap="round" stroke-linejoin="round"/>
<path d="M9.99935 5.00065C10.4596 5.00065 10.8327 4.62756 10.8327 4.16732C10.8327 3.70708 10.4596 3.33398 9.99935 3.33398C9.53911 3.33398 9.16602 3.70708 9.16602 4.16732C9.16602 4.62756 9.53911 5.00065 9.99935 5.00065Z" fill="#FDFBF8" stroke="#FDFBF8" stroke-width="1.2" stroke-linecap="round" stroke-linejoin="round"/>
<path d="M9.99935 16.6667C10.4596 16.6667 10.8327 16.2936 10.8327 15.8333C10.8327 15.3731 10.4596 15 9.99935 15C9.53911 15 9.16602 15.3731 9.16602 15.8333C9.16602 16.2936 9.53911 16.6667 9.99935 16.6667Z" fill="#FDFBF8" stroke="#FDFBF8" stroke-width="1.2" stroke-linecap="round" stroke-linejoin="round"/>
</svg>
