<svg width="20" height="20" viewBox="0 0 20 20" fill="none" xmlns="http://www.w3.org/2000/svg">
<path d="M5.83366 9.16699L9.16699 1.66699C9.83003 1.66699 10.4659 1.93038 10.9348 2.39923C11.4036 2.86807 11.667 3.50395 11.667 4.16699V7.50032H16.3837C16.6252 7.49759 16.8645 7.54741 17.085 7.64634C17.3054 7.74527 17.5017 7.89094 17.6602 8.07325C17.8187 8.25557 17.9357 8.47018 18.0031 8.7022C18.0705 8.93423 18.0866 9.17812 18.0503 9.41699L16.9003 16.917C16.8401 17.3144 16.6382 17.6767 16.3319 17.937C16.0256 18.1973 15.6356 18.3382 15.2337 18.3337H5.83366M5.83366 9.16699V18.3337M5.83366 9.16699H3.33366C2.89163 9.16699 2.46771 9.34259 2.15515 9.65515C1.84259 9.96771 1.66699 10.3916 1.66699 10.8337V16.667C1.66699 17.109 1.84259 17.5329 2.15515 17.8455C2.46771 18.1581 2.89163 18.3337 3.33366 18.3337H5.83366" stroke="#FDFBF8" stroke-width="1.2" stroke-linecap="round" stroke-linejoin="round"/>
</svg>
